<?xml version="1.0" standalone="no"?>
<!DOCTYPE svg PUBLIC "-//W3C//DTD SVG 20010904//EN"
 "http://www.w3.org/TR/2001/REC-SVG-20010904/DTD/svg10.dtd">
<svg version="1.0" xmlns="http://www.w3.org/2000/svg"
 width="300.000000pt" height="168.000000pt" viewBox="0 0 300.000000 168.000000"
 preserveAspectRatio="xMidYMid meet">
<metadata>
Created by potrace 1.16, written by Peter Selinger 2001-2019
</metadata>
<g transform="translate(0.000000,168.000000) scale(0.100000,-0.100000)"
fill="#000000" stroke="none">
<path d="M0 840 l0 -840 395 0 394 0 11 40 c13 48 33 43 24 -6 l-6 -34 46 0
c26 0 53 5 60 12 13 13 9 61 -4 53 -20 -12 -18 15 1 29 16 11 20 22 16 43 -4
23 2 35 33 65 21 21 40 42 42 47 1 5 25 25 51 45 33 25 45 30 38 17 -6 -10
-16 -22 -23 -24 -10 -4 -9 -8 2 -17 12 -9 11 -10 -8 -5 -12 4 -22 3 -20 -2 2
-10 -19 -84 -29 -99 -5 -7 -19 -14 -33 -17 -25 -4 -25 -4 2 -6 19 -1 26 -5 22
-15 -3 -8 0 -17 6 -21 8 -5 7 -11 -2 -22 -6 -8 -13 -20 -15 -27 -1 -6 -5 -21
-9 -34 -6 -21 -4 -22 64 -22 62 0 71 2 77 20 3 11 15 25 26 31 11 5 18 13 15
17 -6 10 15 36 39 50 l20 11 -20 1 c-39 1 -47 13 -29 48 8 18 18 32 20 32 3 0
2 -4 -1 -10 -4 -6 1 -7 10 -3 11 4 15 14 12 30 -4 20 -1 22 16 17 13 -4 17 -2
13 5 -4 6 0 11 8 11 18 0 21 -16 6 -25 -6 -3 -10 -16 -9 -28 l0 -22 9 21 c10
25 28 39 38 29 4 -4 0 -12 -9 -18 -9 -7 -19 -28 -23 -47 -3 -19 -3 -29 0 -22
3 6 10 12 16 12 6 0 6 -6 -2 -15 -7 -8 -16 -12 -21 -10 -20 13 -34 -74 -16
-102 6 -10 -1 -13 -27 -13 -20 0 -36 -4 -36 -10 0 -6 127 -10 361 -10 329 0
361 1 355 16 -4 10 1 22 11 30 15 12 15 13 2 8 -10 -3 -19 -1 -22 3 -11 17 9
32 48 36 l40 4 -46 1 c-27 1 -52 8 -59 17 -7 8 -16 12 -21 9 -5 -3 -13 -2 -19
1 -16 10 12 32 36 27 12 -2 25 1 29 7 3 6 3 11 -2 10 -4 -1 -17 -1 -28 0 -17
1 -18 3 -5 11 9 6 10 10 3 10 -6 0 -19 7 -28 16 -13 14 -14 19 -3 25 10 7 8 9
-6 9 -27 0 -13 11 26 20 l33 8 -33 1 c-18 1 -31 5 -28 9 2 4 -9 14 -25 21 -16
7 -29 20 -29 29 0 13 4 11 16 -6 8 -12 24 -22 35 -22 21 0 26 15 7 26 -7 4 -8
3 -4 -4 14 -23 -7 -12 -30 15 -13 16 -24 35 -23 43 0 10 2 11 6 3 2 -7 11 -13
19 -13 18 0 18 37 0 72 -8 15 -10 30 -5 35 5 5 6 24 3 43 -7 32 -8 33 -16 10
-5 -13 -7 -29 -4 -36 3 -7 -5 -14 -16 -17 -16 -5 -19 -2 -15 15 3 12 -1 34 -9
49 -7 15 -14 39 -14 53 0 25 2 25 59 22 48 -2 66 -8 95 -32 19 -16 38 -39 42
-52 3 -12 13 -22 22 -22 17 0 102 -84 102 -101 0 -5 3 -9 8 -9 4 0 21 -12 37
-26 24 -21 26 -25 9 -20 -15 4 -21 2 -21 -9 0 -8 5 -15 10 -15 5 0 3 -8 -4
-17 -12 -14 -12 -16 0 -8 11 6 13 4 8 -9 -5 -14 -3 -17 8 -12 8 3 15 1 15 -4
0 -6 -4 -10 -9 -10 -8 0 -9 -34 -2 -100 1 -13 2 -13 11 0 6 9 10 10 10 3 0 -6
-6 -18 -12 -25 -16 -16 -19 -48 -6 -48 5 0 8 -10 6 -23 -1 -13 5 -35 15 -50
l17 -27 425 0 425 0 0 840 0 840 -1500 0 -1500 0 0 -840z m1510 435 c7 -8 10
-21 7 -29 -6 -14 45 -46 72 -46 7 0 24 -12 39 -26 15 -15 21 -23 15 -20 -8 5
-13 1 -13 -9 0 -34 -78 -73 -94 -47 -3 5 -24 9 -48 11 -24 1 -51 3 -62 4 -10
1 -23 -7 -30 -18 -14 -26 -28 -35 -39 -28 -5 3 -4 -3 1 -13 7 -14 6 -24 -3
-37 -25 -35 -57 -8 -36 32 8 14 8 22 1 26 -13 8 34 55 54 55 16 0 46 42 46 63
0 8 6 20 14 27 8 6 12 18 9 26 -7 18 14 44 37 44 10 0 23 -7 30 -15z m-1262
-16 c14 -16 35 -22 110 -29 51 -5 100 -14 108 -21 8 -6 14 -29 14 -50 0 -43
-26 -69 -71 -69 -15 0 -29 -6 -32 -12 -3 -10 -9 -10 -26 0 -12 7 -58 12 -116
12 -82 0 -98 3 -115 20 -39 39 -18 113 32 113 18 0 25 4 21 13 -7 19 15 44 39
44 11 0 27 -9 36 -21z m1646 -61 c38 3 45 1 51 -18 4 -13 0 -30 -9 -45 -14
-21 -14 -25 -2 -25 22 0 26 -26 10 -60 -21 -41 -45 -53 -72 -34 -11 8 -22 24
-24 36 -2 12 -9 23 -17 26 -8 3 -11 0 -7 -7 4 -6 2 -19 -3 -28 -6 -10 -11 -14
-11 -8 0 5 -7 -1 -16 -13 -30 -43 -105 -8 -78 36 13 21 50 28 69 12 18 -15 39
23 36 68 -2 31 19 87 26 67 2 -6 23 -9 47 -7z m-379 -168 c14 -5 24 -14 20
-19 -3 -5 7 -11 22 -13 21 -2 33 -13 47 -42 17 -34 18 -44 7 -87 -16 -60 1
-162 25 -152 25 10 15 -11 -20 -39 -19 -16 -45 -28 -58 -29 -18 -1 -16 -3 10
-10 23 -7 32 -16 32 -30 0 -23 -46 -108 -68 -126 -14 -12 -14 -13 1 -13 9 0
17 -4 17 -10 0 -5 -15 -10 -32 -10 -26 0 -30 -3 -18 -10 13 -9 13 -12 -2 -21
-10 -5 -18 -17 -18 -25 0 -8 -9 -22 -21 -32 -11 -9 -25 -28 -30 -41 -6 -16
-14 -21 -26 -17 -13 5 -14 4 -4 -8 8 -10 9 -16 1 -21 -6 -3 -8 -11 -5 -16 4
-5 -1 -9 -9 -9 -9 0 -16 7 -16 15 0 8 8 15 18 15 10 0 13 3 6 8 -13 8 -11 36
5 76 6 16 13 40 15 55 2 14 7 35 12 46 5 11 9 39 9 62 0 24 3 43 8 43 4 0 7 5
7 11 0 16 48 59 66 59 24 0 16 20 -13 32 -52 22 -59 34 -53 85 3 31 0 58 -8
76 -10 20 -11 39 -4 73 8 35 7 52 -4 72 -12 23 -11 29 3 44 18 20 40 23 78 8z
m360 -49 c3 -10 16 -30 30 -43 20 -20 22 -29 16 -58 -5 -24 -3 -44 6 -63 16
-32 14 -61 -5 -63 -26 -3 -26 -5 -3 -18 16 -9 48 -12 99 -9 87 5 122 -8 122
-43 0 -24 -8 -27 -108 -39 -36 -5 -57 -3 -68 6 -12 10 -22 10 -50 0 -31 -11
-38 -10 -69 9 -19 12 -35 25 -35 29 0 4 16 19 35 33 35 25 35 25 15 43 -11 10
-20 23 -20 28 0 6 -7 19 -16 28 -23 26 -21 149 3 167 24 17 41 15 48 -7z"/>
</g>
</svg>
